<svg width="12" height="11" viewBox="0 0 12 11" fill="none" xmlns="http://www.w3.org/2000/svg">
<path d="M9.2344 10.9191C9.15547 10.9195 9.07845 10.8948 9.01432 10.8488L6.00002 8.66352L2.98572 10.8488C2.92133 10.8955 2.84374 10.9206 2.76419 10.9203C2.68464 10.92 2.60723 10.8944 2.54318 10.8472C2.47912 10.8001 2.43173 10.7337 2.40785 10.6578C2.38396 10.582 2.38484 10.5004 2.41033 10.4251L3.58596 6.94297L0.539084 4.85352C0.473087 4.80831 0.423276 4.74318 0.396929 4.66765C0.370582 4.59212 0.36908 4.51014 0.392643 4.43369C0.416206 4.35724 0.463598 4.29033 0.527895 4.24274C0.592193 4.19514 0.670025 4.16936 0.750022 4.16915H4.50893L5.6433 0.678131C5.66774 0.602761 5.71542 0.537068 5.77951 0.490477C5.84359 0.443885 5.92079 0.418789 6.00002 0.418789C6.07925 0.418789 6.15645 0.443885 6.22054 0.490477C6.28462 0.537068 6.3323 0.602761 6.35674 0.678131L7.49112 4.17032H11.25C11.3301 4.17028 11.4081 4.19589 11.4726 4.24339C11.5371 4.29089 11.5847 4.3578 11.6084 4.4343C11.6321 4.51081 11.6307 4.5929 11.6044 4.66855C11.5781 4.7442 11.5282 4.80943 11.4621 4.85469L8.41408 6.94297L9.58901 10.4241C9.60804 10.4805 9.6134 10.5406 9.60463 10.5994C9.59586 10.6583 9.57322 10.7142 9.53857 10.7625C9.50393 10.8109 9.45827 10.8503 9.40538 10.8776C9.35249 10.9048 9.29389 10.919 9.2344 10.9191Z" fill="#FF859B"/>
</svg>
